<mxfile host="app.diagrams.net" modified="2022-10-24T21:59:33.436Z" agent="5.0 (Windows NT 10.0; Win64; x64) AppleWebKit/537.36 (KHTML, like Gecko) Chrome/106.0.0.0 Safari/537.36" etag="CZ6mJNqt3XqZwtpUx69N" version="20.5.1" type="github">
  <diagram name="Page-1" id="e7e014a7-5840-1c2e-5031-d8a46d1fe8dd">
    <mxGraphModel dx="865" dy="483" grid="1" gridSize="10" guides="1" tooltips="1" connect="1" arrows="1" fold="1" page="1" pageScale="1" pageWidth="1169" pageHeight="826" background="none" math="0" shadow="0">
      <root>
        <mxCell id="0" />
        <mxCell id="1" parent="0" />
        <mxCell id="ztdWmv5zP2fgJ_LVbqPv-54" style="edgeStyle=orthogonalEdgeStyle;rounded=0;orthogonalLoop=1;jettySize=auto;html=1;entryX=-0.012;entryY=0.908;entryDx=0;entryDy=0;entryPerimeter=0;strokeColor=#FF3333;" edge="1" parent="1" source="ztdWmv5zP2fgJ_LVbqPv-52" target="ztdWmv5zP2fgJ_LVbqPv-48">
          <mxGeometry relative="1" as="geometry">
            <Array as="points">
              <mxPoint x="480" y="565" />
              <mxPoint x="480" y="393" />
            </Array>
          </mxGeometry>
        </mxCell>
        <mxCell id="ztdWmv5zP2fgJ_LVbqPv-56" style="edgeStyle=orthogonalEdgeStyle;rounded=0;orthogonalLoop=1;jettySize=auto;html=1;entryX=0.005;entryY=0.452;entryDx=0;entryDy=0;entryPerimeter=0;strokeColor=#FF3333;" edge="1" parent="1" source="ztdWmv5zP2fgJ_LVbqPv-48" target="33">
          <mxGeometry relative="1" as="geometry" />
        </mxCell>
        <mxCell id="ztdWmv5zP2fgJ_LVbqPv-78" style="edgeStyle=orthogonalEdgeStyle;rounded=0;orthogonalLoop=1;jettySize=auto;html=1;entryX=-0.007;entryY=0.27;entryDx=0;entryDy=0;entryPerimeter=0;strokeColor=#FF3333;" edge="1" parent="1" source="33" target="ztdWmv5zP2fgJ_LVbqPv-77">
          <mxGeometry relative="1" as="geometry" />
        </mxCell>
        <mxCell id="ztdWmv5zP2fgJ_LVbqPv-82" style="edgeStyle=orthogonalEdgeStyle;rounded=0;orthogonalLoop=1;jettySize=auto;html=1;entryX=0;entryY=0.5;entryDx=0;entryDy=0;entryPerimeter=0;strokeColor=#FF3333;" edge="1" parent="1" source="ztdWmv5zP2fgJ_LVbqPv-63" target="ztdWmv5zP2fgJ_LVbqPv-76">
          <mxGeometry relative="1" as="geometry" />
        </mxCell>
        <mxCell id="ztdWmv5zP2fgJ_LVbqPv-119" style="edgeStyle=orthogonalEdgeStyle;rounded=0;orthogonalLoop=1;jettySize=auto;html=1;entryX=0;entryY=0.5;entryDx=0;entryDy=0;strokeColor=#FF3333;" edge="1" parent="1" source="ztdWmv5zP2fgJ_LVbqPv-104" target="ztdWmv5zP2fgJ_LVbqPv-96">
          <mxGeometry relative="1" as="geometry" />
        </mxCell>
        <mxCell id="ztdWmv5zP2fgJ_LVbqPv-143" style="edgeStyle=orthogonalEdgeStyle;rounded=0;orthogonalLoop=1;jettySize=auto;html=1;entryX=1;entryY=0;entryDx=0;entryDy=27.5;entryPerimeter=0;strokeColor=#FF3333;" edge="1" parent="1" source="ztdWmv5zP2fgJ_LVbqPv-122" target="ztdWmv5zP2fgJ_LVbqPv-76">
          <mxGeometry relative="1" as="geometry">
            <Array as="points">
              <mxPoint x="1240" y="276" />
              <mxPoint x="1240" y="328" />
            </Array>
          </mxGeometry>
        </mxCell>
        <mxCell id="ztdWmv5zP2fgJ_LVbqPv-51" style="edgeStyle=orthogonalEdgeStyle;rounded=0;orthogonalLoop=1;jettySize=auto;html=1;entryX=0.008;entryY=0.41;entryDx=0;entryDy=0;entryPerimeter=0;strokeColor=#FF3333;" edge="1" parent="1" source="8" target="ztdWmv5zP2fgJ_LVbqPv-41">
          <mxGeometry relative="1" as="geometry" />
        </mxCell>
        <mxCell id="ztdWmv5zP2fgJ_LVbqPv-50" style="edgeStyle=orthogonalEdgeStyle;rounded=0;orthogonalLoop=1;jettySize=auto;html=1;entryX=0.015;entryY=0.54;entryDx=0;entryDy=0;entryPerimeter=0;strokeColor=#FF3333;" edge="1" parent="1" source="8" target="ztdWmv5zP2fgJ_LVbqPv-48">
          <mxGeometry relative="1" as="geometry">
            <Array as="points">
              <mxPoint x="522" y="373" />
              <mxPoint x="522" y="375" />
            </Array>
          </mxGeometry>
        </mxCell>
        <mxCell id="2" value="Thread 1" style="swimlane;whiteSpace=wrap" parent="1" vertex="1">
          <mxGeometry x="164.5" y="128" width="280" height="570" as="geometry" />
        </mxCell>
        <mxCell id="5" value="" style="ellipse;shape=startState;fillColor=#000000;strokeColor=#ff0000;" parent="2" vertex="1">
          <mxGeometry x="100" y="40" width="30" height="30" as="geometry" />
        </mxCell>
        <mxCell id="6" value="" style="edgeStyle=elbowEdgeStyle;elbow=horizontal;verticalAlign=bottom;endArrow=open;endSize=8;strokeColor=#FF0000;endFill=1;rounded=0" parent="2" source="5" target="7" edge="1">
          <mxGeometry x="100" y="40" as="geometry">
            <mxPoint x="115" y="110" as="targetPoint" />
          </mxGeometry>
        </mxCell>
        <mxCell id="ztdWmv5zP2fgJ_LVbqPv-53" style="edgeStyle=orthogonalEdgeStyle;rounded=0;orthogonalLoop=1;jettySize=auto;html=1;entryX=0.523;entryY=-0.1;entryDx=0;entryDy=0;entryPerimeter=0;strokeColor=#FF3333;" edge="1" parent="2" source="10" target="ztdWmv5zP2fgJ_LVbqPv-52">
          <mxGeometry relative="1" as="geometry" />
        </mxCell>
        <mxCell id="10" value="Escolher flash tatto" style="" parent="2" vertex="1">
          <mxGeometry x="60" y="325" width="110" height="50" as="geometry" />
        </mxCell>
        <mxCell id="ztdWmv5zP2fgJ_LVbqPv-44" style="edgeStyle=orthogonalEdgeStyle;rounded=0;orthogonalLoop=1;jettySize=auto;html=1;entryX=0.006;entryY=0.68;entryDx=0;entryDy=0;entryPerimeter=0;strokeColor=#FF3333;" edge="1" parent="2" source="7" target="10">
          <mxGeometry relative="1" as="geometry">
            <Array as="points">
              <mxPoint x="36" y="135" />
              <mxPoint x="36" y="359" />
            </Array>
          </mxGeometry>
        </mxCell>
        <mxCell id="ztdWmv5zP2fgJ_LVbqPv-45" style="edgeStyle=orthogonalEdgeStyle;rounded=0;orthogonalLoop=1;jettySize=auto;html=1;entryX=0.501;entryY=0.012;entryDx=0;entryDy=0;entryPerimeter=0;strokeColor=#FF3333;" edge="1" parent="2" source="7" target="8">
          <mxGeometry relative="1" as="geometry" />
        </mxCell>
        <mxCell id="7" value="login" style="" parent="2" vertex="1">
          <mxGeometry x="60" y="110" width="110" height="50" as="geometry" />
        </mxCell>
        <mxCell id="8" value="Agendar" style="" parent="2" vertex="1">
          <mxGeometry x="60" y="220" width="110" height="50" as="geometry" />
        </mxCell>
        <mxCell id="ztdWmv5zP2fgJ_LVbqPv-52" value="Agendar" style="" vertex="1" parent="2">
          <mxGeometry x="57" y="412" width="110" height="50" as="geometry" />
        </mxCell>
        <mxCell id="ztdWmv5zP2fgJ_LVbqPv-61" value="Cliente" style="shape=umlActor;verticalLabelPosition=bottom;verticalAlign=top;html=1;outlineConnect=0;" vertex="1" parent="2">
          <mxGeometry x="185.5" y="105" width="30" height="60" as="geometry" />
        </mxCell>
        <mxCell id="4" value="Thread 3" style="swimlane;whiteSpace=wrap" parent="1" vertex="1">
          <mxGeometry x="724.5" y="128" width="280.5" height="570" as="geometry" />
        </mxCell>
        <mxCell id="33" value="Enviar ideia de tatto" style="" parent="4" vertex="1">
          <mxGeometry x="85.25" y="109" width="110" height="50" as="geometry" />
        </mxCell>
        <mxCell id="ztdWmv5zP2fgJ_LVbqPv-59" value="" style="endArrow=none;dashed=1;html=1;dashPattern=1 3;strokeWidth=2;rounded=0;strokeColor=#FF3333;entryX=0.78;entryY=-0.092;entryDx=0;entryDy=0;entryPerimeter=0;exitX=0.31;exitY=0.8;exitDx=0;exitDy=0;exitPerimeter=0;" edge="1" parent="4" target="33">
          <mxGeometry width="50" height="50" relative="1" as="geometry">
            <mxPoint x="199.70000000000005" y="85" as="sourcePoint" />
            <mxPoint x="205.5" y="272" as="targetPoint" />
          </mxGeometry>
        </mxCell>
        <mxCell id="ztdWmv5zP2fgJ_LVbqPv-62" value="Tatuador" style="shape=umlActor;verticalLabelPosition=bottom;verticalAlign=top;html=1;outlineConnect=0;" vertex="1" parent="4">
          <mxGeometry x="35.5" y="197" width="30" height="60" as="geometry" />
        </mxCell>
        <mxCell id="ztdWmv5zP2fgJ_LVbqPv-86" style="edgeStyle=orthogonalEdgeStyle;rounded=0;orthogonalLoop=1;jettySize=auto;html=1;entryX=0.5;entryY=0;entryDx=0;entryDy=0;entryPerimeter=0;strokeColor=#FF3333;" edge="1" parent="4" source="ztdWmv5zP2fgJ_LVbqPv-63" target="ztdWmv5zP2fgJ_LVbqPv-84">
          <mxGeometry relative="1" as="geometry" />
        </mxCell>
        <mxCell id="ztdWmv5zP2fgJ_LVbqPv-63" value="Consultar solicitações" style="rounded=0;whiteSpace=wrap;html=1;" vertex="1" parent="4">
          <mxGeometry x="93.5" y="192" width="120" height="60" as="geometry" />
        </mxCell>
        <mxCell id="ztdWmv5zP2fgJ_LVbqPv-75" value="Com descrição e imagem" style="shape=note;whiteSpace=wrap;html=1;backgroundOutline=1;darkOpacity=0.05;size=13;" vertex="1" parent="4">
          <mxGeometry x="175.5" y="32" width="94.5" height="48" as="geometry" />
        </mxCell>
        <mxCell id="ztdWmv5zP2fgJ_LVbqPv-106" style="edgeStyle=orthogonalEdgeStyle;rounded=0;orthogonalLoop=1;jettySize=auto;html=1;entryX=0.5;entryY=0;entryDx=0;entryDy=0;strokeColor=#FF3333;" edge="1" parent="4" source="ztdWmv5zP2fgJ_LVbqPv-84" target="ztdWmv5zP2fgJ_LVbqPv-105">
          <mxGeometry relative="1" as="geometry" />
        </mxCell>
        <mxCell id="ztdWmv5zP2fgJ_LVbqPv-84" value="Analisar solicitação" style="rounded=0;whiteSpace=wrap;html=1;" vertex="1" parent="4">
          <mxGeometry x="93.5" y="295" width="120" height="60" as="geometry" />
        </mxCell>
        <mxCell id="ztdWmv5zP2fgJ_LVbqPv-104" value="Ligar para cliente" style="rounded=0;whiteSpace=wrap;html=1;" vertex="1" parent="4">
          <mxGeometry x="91.5" y="492" width="120" height="60" as="geometry" />
        </mxCell>
        <mxCell id="ztdWmv5zP2fgJ_LVbqPv-107" style="edgeStyle=orthogonalEdgeStyle;rounded=0;orthogonalLoop=1;jettySize=auto;html=1;entryX=0.52;entryY=-0.003;entryDx=0;entryDy=0;entryPerimeter=0;strokeColor=#FF3333;" edge="1" parent="4" source="ztdWmv5zP2fgJ_LVbqPv-105" target="ztdWmv5zP2fgJ_LVbqPv-104">
          <mxGeometry relative="1" as="geometry" />
        </mxCell>
        <mxCell id="ztdWmv5zP2fgJ_LVbqPv-108" value="Sim" style="edgeLabel;html=1;align=center;verticalAlign=middle;resizable=0;points=[];" vertex="1" connectable="0" parent="ztdWmv5zP2fgJ_LVbqPv-107">
          <mxGeometry x="-0.2027" relative="1" as="geometry">
            <mxPoint as="offset" />
          </mxGeometry>
        </mxCell>
        <mxCell id="ztdWmv5zP2fgJ_LVbqPv-105" value="Solicitação valida ?" style="rhombus;whiteSpace=wrap;html=1;" vertex="1" parent="4">
          <mxGeometry x="113.5" y="377" width="80" height="80" as="geometry" />
        </mxCell>
        <mxCell id="3" value="Thread 2" style="swimlane;whiteSpace=wrap" parent="1" vertex="1">
          <mxGeometry x="444.5" y="128" width="280" height="570" as="geometry">
            <mxRectangle x="444.5" y="128" width="90" height="30" as="alternateBounds" />
          </mxGeometry>
        </mxCell>
        <mxCell id="ztdWmv5zP2fgJ_LVbqPv-60" style="edgeStyle=orthogonalEdgeStyle;rounded=0;orthogonalLoop=1;jettySize=auto;html=1;exitX=0.5;exitY=1;exitDx=0;exitDy=0;entryX=0.495;entryY=-0.043;entryDx=0;entryDy=0;entryPerimeter=0;strokeColor=#FF3333;" edge="1" parent="3" source="13" target="ztdWmv5zP2fgJ_LVbqPv-41">
          <mxGeometry relative="1" as="geometry" />
        </mxCell>
        <mxCell id="13" value="" style="ellipse;shape=startState;fillColor=#000000;strokeColor=#ff0000;" parent="3" vertex="1">
          <mxGeometry x="125.5" y="40" width="30" height="30" as="geometry" />
        </mxCell>
        <mxCell id="ztdWmv5zP2fgJ_LVbqPv-55" style="edgeStyle=orthogonalEdgeStyle;rounded=0;orthogonalLoop=1;jettySize=auto;html=1;entryX=0.51;entryY=-0.068;entryDx=0;entryDy=0;entryPerimeter=0;strokeColor=#FF3333;" edge="1" parent="3" source="ztdWmv5zP2fgJ_LVbqPv-41" target="ztdWmv5zP2fgJ_LVbqPv-48">
          <mxGeometry relative="1" as="geometry" />
        </mxCell>
        <mxCell id="ztdWmv5zP2fgJ_LVbqPv-41" value="Seleionar estudio" style="rounded=0;whiteSpace=wrap;html=1;" vertex="1" parent="3">
          <mxGeometry x="80.5" y="112" width="120" height="60" as="geometry" />
        </mxCell>
        <mxCell id="ztdWmv5zP2fgJ_LVbqPv-48" value="Selecionar dia" style="" vertex="1" parent="3">
          <mxGeometry x="80.5" y="220" width="119.5" height="50" as="geometry" />
        </mxCell>
        <mxCell id="ztdWmv5zP2fgJ_LVbqPv-66" value="Thread 4" style="swimlane;whiteSpace=wrap" vertex="1" parent="1">
          <mxGeometry x="1005" y="128" width="280.5" height="570" as="geometry" />
        </mxCell>
        <mxCell id="ztdWmv5zP2fgJ_LVbqPv-76" value="TatuariaDb" style="shape=cylinder3;whiteSpace=wrap;html=1;boundedLbl=1;backgroundOutline=1;size=15;" vertex="1" parent="ztdWmv5zP2fgJ_LVbqPv-66">
          <mxGeometry x="102" y="172" width="60" height="80" as="geometry" />
        </mxCell>
        <mxCell id="ztdWmv5zP2fgJ_LVbqPv-79" style="edgeStyle=orthogonalEdgeStyle;rounded=0;orthogonalLoop=1;jettySize=auto;html=1;entryX=0.643;entryY=-0.002;entryDx=0;entryDy=0;entryPerimeter=0;strokeColor=#FF3333;" edge="1" parent="ztdWmv5zP2fgJ_LVbqPv-66" source="ztdWmv5zP2fgJ_LVbqPv-77" target="ztdWmv5zP2fgJ_LVbqPv-76">
          <mxGeometry relative="1" as="geometry" />
        </mxCell>
        <mxCell id="ztdWmv5zP2fgJ_LVbqPv-77" value="Salva solicitação" style="rounded=0;whiteSpace=wrap;html=1;" vertex="1" parent="ztdWmv5zP2fgJ_LVbqPv-66">
          <mxGeometry x="80.25" y="82" width="120" height="60" as="geometry" />
        </mxCell>
        <mxCell id="ztdWmv5zP2fgJ_LVbqPv-120" style="edgeStyle=orthogonalEdgeStyle;rounded=0;orthogonalLoop=1;jettySize=auto;html=1;exitX=0.5;exitY=0;exitDx=0;exitDy=0;entryX=0.361;entryY=1.028;entryDx=0;entryDy=0;entryPerimeter=0;strokeColor=#FF3333;" edge="1" parent="ztdWmv5zP2fgJ_LVbqPv-66" source="ztdWmv5zP2fgJ_LVbqPv-96" target="ztdWmv5zP2fgJ_LVbqPv-115">
          <mxGeometry relative="1" as="geometry" />
        </mxCell>
        <mxCell id="ztdWmv5zP2fgJ_LVbqPv-121" value="Não" style="edgeLabel;html=1;align=center;verticalAlign=middle;resizable=0;points=[];" vertex="1" connectable="0" parent="ztdWmv5zP2fgJ_LVbqPv-120">
          <mxGeometry x="-0.2659" y="1" relative="1" as="geometry">
            <mxPoint as="offset" />
          </mxGeometry>
        </mxCell>
        <mxCell id="ztdWmv5zP2fgJ_LVbqPv-96" value="Solicitação aceita ?" style="rhombus;whiteSpace=wrap;html=1;" vertex="1" parent="ztdWmv5zP2fgJ_LVbqPv-66">
          <mxGeometry x="92" y="462" width="80" height="80" as="geometry" />
        </mxCell>
        <mxCell id="ztdWmv5zP2fgJ_LVbqPv-117" style="edgeStyle=orthogonalEdgeStyle;rounded=0;orthogonalLoop=1;jettySize=auto;html=1;entryX=0.145;entryY=1;entryDx=0;entryDy=-4.35;entryPerimeter=0;strokeColor=#FF3333;" edge="1" parent="ztdWmv5zP2fgJ_LVbqPv-66" source="ztdWmv5zP2fgJ_LVbqPv-115" target="ztdWmv5zP2fgJ_LVbqPv-76">
          <mxGeometry relative="1" as="geometry" />
        </mxCell>
        <mxCell id="ztdWmv5zP2fgJ_LVbqPv-115" value="Liberar dia da agenda" style="rounded=0;whiteSpace=wrap;html=1;" vertex="1" parent="ztdWmv5zP2fgJ_LVbqPv-66">
          <mxGeometry x="15" y="295" width="95" height="60" as="geometry" />
        </mxCell>
        <mxCell id="ztdWmv5zP2fgJ_LVbqPv-94" style="edgeStyle=orthogonalEdgeStyle;rounded=0;orthogonalLoop=1;jettySize=auto;html=1;exitX=0;exitY=1;exitDx=0;exitDy=-15;exitPerimeter=0;strokeColor=#FF3333;" edge="1" parent="1" source="ztdWmv5zP2fgJ_LVbqPv-76">
          <mxGeometry relative="1" as="geometry">
            <mxPoint x="940" y="365" as="targetPoint" />
          </mxGeometry>
        </mxCell>
        <mxCell id="ztdWmv5zP2fgJ_LVbqPv-98" value="Thread 5" style="swimlane;whiteSpace=wrap" vertex="1" parent="1">
          <mxGeometry x="1285.5" y="128" width="284.5" height="570" as="geometry" />
        </mxCell>
        <mxCell id="ztdWmv5zP2fgJ_LVbqPv-130" style="edgeStyle=orthogonalEdgeStyle;rounded=0;orthogonalLoop=1;jettySize=auto;html=1;entryX=0.5;entryY=0;entryDx=0;entryDy=0;strokeColor=#FF3333;" edge="1" parent="ztdWmv5zP2fgJ_LVbqPv-98" source="ztdWmv5zP2fgJ_LVbqPv-122" target="ztdWmv5zP2fgJ_LVbqPv-127">
          <mxGeometry relative="1" as="geometry" />
        </mxCell>
        <mxCell id="ztdWmv5zP2fgJ_LVbqPv-122" value="Concluir agendamento&amp;nbsp;" style="rounded=0;whiteSpace=wrap;html=1;" vertex="1" parent="ztdWmv5zP2fgJ_LVbqPv-98">
          <mxGeometry x="80.5" y="118" width="120" height="60" as="geometry" />
        </mxCell>
        <mxCell id="ztdWmv5zP2fgJ_LVbqPv-124" value="Podemos colcoar um campo para o tatuador confirmar sinal antes desse passo" style="shape=note;whiteSpace=wrap;html=1;backgroundOutline=1;darkOpacity=0.05;size=11;" vertex="1" parent="ztdWmv5zP2fgJ_LVbqPv-98">
          <mxGeometry x="30" y="32" width="220" height="58" as="geometry" />
        </mxCell>
        <mxCell id="ztdWmv5zP2fgJ_LVbqPv-125" value="" style="endArrow=none;dashed=1;html=1;dashPattern=1 3;strokeWidth=2;rounded=0;strokeColor=#FF3333;entryX=0.5;entryY=1;entryDx=0;entryDy=0;entryPerimeter=0;exitX=0.508;exitY=-0.011;exitDx=0;exitDy=0;exitPerimeter=0;" edge="1" parent="ztdWmv5zP2fgJ_LVbqPv-98" source="ztdWmv5zP2fgJ_LVbqPv-122" target="ztdWmv5zP2fgJ_LVbqPv-124">
          <mxGeometry width="50" height="50" relative="1" as="geometry">
            <mxPoint x="154.5" y="132" as="sourcePoint" />
            <mxPoint x="204.5" y="82" as="targetPoint" />
          </mxGeometry>
        </mxCell>
        <mxCell id="ztdWmv5zP2fgJ_LVbqPv-146" value="" style="edgeStyle=orthogonalEdgeStyle;rounded=0;orthogonalLoop=1;jettySize=auto;html=1;strokeColor=#FF3333;" edge="1" parent="ztdWmv5zP2fgJ_LVbqPv-98" source="ztdWmv5zP2fgJ_LVbqPv-127" target="ztdWmv5zP2fgJ_LVbqPv-144">
          <mxGeometry relative="1" as="geometry" />
        </mxCell>
        <mxCell id="ztdWmv5zP2fgJ_LVbqPv-148" value="Não" style="edgeLabel;html=1;align=center;verticalAlign=middle;resizable=0;points=[];" vertex="1" connectable="0" parent="ztdWmv5zP2fgJ_LVbqPv-146">
          <mxGeometry x="-0.2857" y="-1" relative="1" as="geometry">
            <mxPoint as="offset" />
          </mxGeometry>
        </mxCell>
        <mxCell id="ztdWmv5zP2fgJ_LVbqPv-127" value="Tatuador confirmou atendimento ?" style="rhombus;whiteSpace=wrap;html=1;" vertex="1" parent="ztdWmv5zP2fgJ_LVbqPv-98">
          <mxGeometry x="104.5" y="222" width="145.5" height="80" as="geometry" />
        </mxCell>
        <mxCell id="ztdWmv5zP2fgJ_LVbqPv-128" value="Valor variável de um dia" style="shape=note;whiteSpace=wrap;html=1;backgroundOutline=1;darkOpacity=0.05;size=9;" vertex="1" parent="ztdWmv5zP2fgJ_LVbqPv-98">
          <mxGeometry x="4.5" y="192" width="80" height="43" as="geometry" />
        </mxCell>
        <mxCell id="ztdWmv5zP2fgJ_LVbqPv-129" value="" style="endArrow=none;dashed=1;html=1;dashPattern=1 3;strokeWidth=2;rounded=0;strokeColor=#FF3333;entryX=0.5;entryY=1;entryDx=0;entryDy=0;entryPerimeter=0;exitX=0;exitY=0.5;exitDx=0;exitDy=0;" edge="1" parent="ztdWmv5zP2fgJ_LVbqPv-98" source="ztdWmv5zP2fgJ_LVbqPv-127" target="ztdWmv5zP2fgJ_LVbqPv-128">
          <mxGeometry width="50" height="50" relative="1" as="geometry">
            <mxPoint x="44.5" y="312" as="sourcePoint" />
            <mxPoint x="94.5" y="262" as="targetPoint" />
          </mxGeometry>
        </mxCell>
        <mxCell id="ztdWmv5zP2fgJ_LVbqPv-145" style="edgeStyle=orthogonalEdgeStyle;rounded=0;orthogonalLoop=1;jettySize=auto;html=1;entryX=0;entryY=1;entryDx=0;entryDy=0;strokeColor=#FF3333;exitX=0;exitY=0.5;exitDx=0;exitDy=0;" edge="1" parent="ztdWmv5zP2fgJ_LVbqPv-98" source="ztdWmv5zP2fgJ_LVbqPv-144" target="ztdWmv5zP2fgJ_LVbqPv-127">
          <mxGeometry relative="1" as="geometry" />
        </mxCell>
        <mxCell id="ztdWmv5zP2fgJ_LVbqPv-147" value="Não" style="edgeLabel;html=1;align=center;verticalAlign=middle;resizable=0;points=[];" vertex="1" connectable="0" parent="ztdWmv5zP2fgJ_LVbqPv-145">
          <mxGeometry x="-0.5554" y="1" relative="1" as="geometry">
            <mxPoint as="offset" />
          </mxGeometry>
        </mxCell>
        <mxCell id="ztdWmv5zP2fgJ_LVbqPv-144" value="É um dia após&lt;br&gt;&amp;nbsp;atendimento ?" style="rhombus;whiteSpace=wrap;html=1;" vertex="1" parent="ztdWmv5zP2fgJ_LVbqPv-98">
          <mxGeometry x="88.5" y="342" width="151.5" height="98" as="geometry" />
        </mxCell>
        <mxCell id="ztdWmv5zP2fgJ_LVbqPv-116" style="edgeStyle=orthogonalEdgeStyle;rounded=0;orthogonalLoop=1;jettySize=auto;html=1;entryX=0.086;entryY=1.017;entryDx=0;entryDy=0;entryPerimeter=0;strokeColor=#FF3333;" edge="1" parent="1" source="ztdWmv5zP2fgJ_LVbqPv-105" target="ztdWmv5zP2fgJ_LVbqPv-115">
          <mxGeometry relative="1" as="geometry" />
        </mxCell>
        <mxCell id="ztdWmv5zP2fgJ_LVbqPv-118" value="Não" style="edgeLabel;html=1;align=center;verticalAlign=middle;resizable=0;points=[];" vertex="1" connectable="0" parent="ztdWmv5zP2fgJ_LVbqPv-116">
          <mxGeometry x="-0.7254" y="-1" relative="1" as="geometry">
            <mxPoint as="offset" />
          </mxGeometry>
        </mxCell>
        <mxCell id="ztdWmv5zP2fgJ_LVbqPv-123" style="edgeStyle=orthogonalEdgeStyle;rounded=0;orthogonalLoop=1;jettySize=auto;html=1;entryX=-0.008;entryY=0.156;entryDx=0;entryDy=0;entryPerimeter=0;strokeColor=#FF3333;" edge="1" parent="1" source="ztdWmv5zP2fgJ_LVbqPv-96" target="ztdWmv5zP2fgJ_LVbqPv-122">
          <mxGeometry relative="1" as="geometry" />
        </mxCell>
        <mxCell id="ztdWmv5zP2fgJ_LVbqPv-133" value="Thread 6" style="swimlane;whiteSpace=wrap" vertex="1" parent="1">
          <mxGeometry x="1570" y="128" width="284.5" height="570" as="geometry" />
        </mxCell>
        <mxCell id="ztdWmv5zP2fgJ_LVbqPv-154" style="edgeStyle=orthogonalEdgeStyle;rounded=0;orthogonalLoop=1;jettySize=auto;html=1;entryX=0.5;entryY=0;entryDx=0;entryDy=0;entryPerimeter=0;strokeColor=#FF3333;" edge="1" parent="ztdWmv5zP2fgJ_LVbqPv-133" source="ztdWmv5zP2fgJ_LVbqPv-131" target="ztdWmv5zP2fgJ_LVbqPv-153">
          <mxGeometry relative="1" as="geometry" />
        </mxCell>
        <mxCell id="ztdWmv5zP2fgJ_LVbqPv-131" value="Concluir atendmento" style="whiteSpace=wrap;html=1;" vertex="1" parent="ztdWmv5zP2fgJ_LVbqPv-133">
          <mxGeometry x="70" y="132" width="120" height="60" as="geometry" />
        </mxCell>
        <mxCell id="ztdWmv5zP2fgJ_LVbqPv-155" style="edgeStyle=orthogonalEdgeStyle;rounded=0;orthogonalLoop=1;jettySize=auto;html=1;entryX=0.5;entryY=1;entryDx=0;entryDy=0;entryPerimeter=0;strokeColor=#FF3333;" edge="1" parent="ztdWmv5zP2fgJ_LVbqPv-133" source="ztdWmv5zP2fgJ_LVbqPv-151" target="ztdWmv5zP2fgJ_LVbqPv-153">
          <mxGeometry relative="1" as="geometry" />
        </mxCell>
        <mxCell id="ztdWmv5zP2fgJ_LVbqPv-151" value="Notificar tatuador para atualizar atendimentos não realizados" style="rounded=0;whiteSpace=wrap;html=1;" vertex="1" parent="ztdWmv5zP2fgJ_LVbqPv-133">
          <mxGeometry x="82.25" y="392" width="120" height="60" as="geometry" />
        </mxCell>
        <mxCell id="ztdWmv5zP2fgJ_LVbqPv-157" style="edgeStyle=orthogonalEdgeStyle;rounded=0;orthogonalLoop=1;jettySize=auto;html=1;entryX=0;entryY=0.5;entryDx=0;entryDy=0;strokeColor=#FF3333;" edge="1" parent="ztdWmv5zP2fgJ_LVbqPv-133" source="ztdWmv5zP2fgJ_LVbqPv-153" target="ztdWmv5zP2fgJ_LVbqPv-156">
          <mxGeometry relative="1" as="geometry" />
        </mxCell>
        <mxCell id="ztdWmv5zP2fgJ_LVbqPv-153" value="TatuariaDb" style="shape=cylinder3;whiteSpace=wrap;html=1;boundedLbl=1;backgroundOutline=1;size=15;" vertex="1" parent="ztdWmv5zP2fgJ_LVbqPv-133">
          <mxGeometry x="100" y="245" width="60" height="80" as="geometry" />
        </mxCell>
        <mxCell id="ztdWmv5zP2fgJ_LVbqPv-156" value="" style="ellipse;shape=startState;fillColor=#000000;strokeColor=#ff0000;" vertex="1" parent="ztdWmv5zP2fgJ_LVbqPv-133">
          <mxGeometry x="220" y="270" width="30" height="30" as="geometry" />
        </mxCell>
        <mxCell id="ztdWmv5zP2fgJ_LVbqPv-150" style="edgeStyle=orthogonalEdgeStyle;rounded=0;orthogonalLoop=1;jettySize=auto;html=1;strokeColor=#FF3333;entryX=-0.008;entryY=0.483;entryDx=0;entryDy=0;entryPerimeter=0;" edge="1" parent="1" source="ztdWmv5zP2fgJ_LVbqPv-144" target="ztdWmv5zP2fgJ_LVbqPv-151">
          <mxGeometry relative="1" as="geometry">
            <mxPoint x="1614" y="518.9999999999999" as="targetPoint" />
          </mxGeometry>
        </mxCell>
        <mxCell id="ztdWmv5zP2fgJ_LVbqPv-152" style="edgeStyle=orthogonalEdgeStyle;rounded=0;orthogonalLoop=1;jettySize=auto;html=1;entryX=0.006;entryY=0.456;entryDx=0;entryDy=0;entryPerimeter=0;strokeColor=#FF3333;" edge="1" parent="1" source="ztdWmv5zP2fgJ_LVbqPv-127" target="ztdWmv5zP2fgJ_LVbqPv-131">
          <mxGeometry relative="1" as="geometry" />
        </mxCell>
      </root>
    </mxGraphModel>
  </diagram>
</mxfile>
